<svg xmlns="http://www.w3.org/2000/svg" viewBox="0 0 283 419" id="bulb" fill="#f2f2f2" fill-opacity="1" stroke="#000000" stroke-width="2" stroke-opacity="1">
<title>Bulb</title>
<path d="M47.31501208496093,257.0381706341553 A323.675,323.675 0 0 1 60.33501208496094,310.2691706341553 C60.612012084960924,334.0251706341553 80.29601208496095,353.86317063415527 103.56501208496093,353.86317063415527 L179.02701208496092,353.86317063415527 C202.29301208496094,353.86317063415527 221.97501208496095,334.02917063415526 222.25501208496092,310.27417063415527 A317.516,317.516 0 0 1 235.25501208496092,256.99317063415526 C238.59101208496094,247.36517063415528 244.92101208496092,236.27017063415525 251.6210120849609,224.49317063415526 C265.6640120849609,199.80217063415526 281.58101208496095,171.83417063415527 281.58101208496095,140.22217063415528 A137.57,137.57 0 0 0 240.14901208496093,41.73717063415528 A140.224,140.224 0 0 0 42.428012084960926,41.820170634155275 A137.811,137.811 0 0 0 1.000012084960943,140.38717063415527 C1.000012084960943,171.84817063415528 16.88101208496093,199.72517063415526 30.89301208496093,224.32017063415526 C37.66301208496094,236.1911706341553 44.05401208496093,247.40917063415526 47.31501208496093,257.0381706341553 z"/>
<path d="M198.90116187081983,369.2171606341553 A5.81267770183837,7 0 0 0 193.08848416898147,362.2171606341553 L89.4925239171053,362.2171606341553 A5.81267770183837,7 0 1 0 89.4925239171053,376.2171606341553 L193.08848416898147,376.2171606341553 A5.81267770183837,7 0 0 0 198.90116187081983,369.2171606341553 z"/>
<path d="M184.822439292919,390.6241706341553 A5.131883837406901,7 0 0 0 179.69056484174232,383.6241706341553 L102.8904767030062,383.6241706341553 A5.131883837406901,7 0 1 0 102.8904767030062,397.6241706341553 L179.69056484174232,397.6241706341553 A5.131883837406901,7 0 0 0 184.822439292919,390.6241706341553 z"/>
<path d="M173.01228648305099,411.3054806341553 A4.496944118139094,7 0 0 0 168.51534236491187,404.3054806341553 L114.06567555969743,404.3054806341553 A4.496944118139094,7 0 1 0 114.06567555969743,418.3054806341553 L168.51534236491187,418.3054806341553 A4.496944118139094,7 0 0 0 173.01228648305099,411.3054806341553 z"/>
</svg>
